<svg xmlns="http://www.w3.org/2000/svg" viewBox="0 0 16 16" style="height: 512px; width: 512px;" width="16" height="16"><g class="" style=""><path d="m4.802 0.563 1.643 4.21c0.053 0.125 0.127 0.182 0.226 0.218 0.1 0.036 0.23 0.037 0.346 0.005s0.21 -0.098 0.25 -0.154c0.04 -0.055 0.051 -0.08 0.016 -0.164l-0.001 -0.004L5.674 0.563zm2.943 3.754 0.059 0.15 -0.003 -0.007c0.105 0.248 0.057 0.526 -0.079 0.713 -0.136 0.187 -0.337 0.304 -0.554 0.365 -0.217 0.061 -0.458 0.065 -0.687 -0.018s-0.442 -0.264 -0.554 -0.529l-0.002 -0.004 -0.055 -0.141c-0.978 0.619 -1.327 1.313 -1.105 2.153 0.039 0.146 0.107 0.386 0.186 0.692 2.324 -0.165 4.373 -0.746 6.244 -1.613 -0.322 -0.433 -0.703 -0.807 -1.195 -1.079 -0.641 -0.354 -1.489 -0.63 -2.256 -0.683zm3.767 2.235c-1.922 0.9 -4.037 1.512 -6.424 1.694 0.063 0.271 0.128 0.571 0.186 0.89 2.8 -0.315 5.095 -0.819 6.805 -1.524 -0.179 -0.366 -0.362 -0.725 -0.567 -1.06m0.814 1.567c-1.784 0.743 -4.125 1.253 -6.96 1.573C5.647 11.607 5.613 13.961 4 15c0.508 0 0.997 -0.005 1.466 -0.014 0.557 -0.799 0.977 -2.069 1.002 -2.692 0.258 0.525 0.103 1.854 -0.168 2.67 0.085 -0.003 0.17 -0.006 0.254 -0.009 0.369 -0.387 0.366 -0.895 0.46 -1.478 0.104 0.466 0.219 1.03 0.297 1.442 0.352 -0.019 0.692 -0.042 1.019 -0.068 0.512 -0.636 0.677 -1.55 0.582 -2.671 0.132 0.909 0.285 1.942 0.371 2.58a24.125 24.125 0 0 0 0.869 -0.113c0.158 -0.587 -0.128 -1.514 -0.065 -2.173 0.348 1.347 0.695 1.733 1.043 2.001a14.25 14.25 0 0 0 0.492 -0.11c-0.147 -0.436 0.049 -0.703 0.037 -1.25 0.176 0.593 0.457 0.842 0.763 1.026 0.203 -0.066 0.396 -0.136 0.578 -0.209 -0.329 -0.205 -0.316 -0.824 -0.387 -1.341 0.186 0.678 0.45 1.013 0.753 1.182 0.91 -0.431 1.522 -0.985 1.887 -1.677 -0.284 -0.119 -0.584 -0.406 -0.877 -0.628 0.413 0.234 0.74 0.332 1.012 0.342a3.5 3.5 0 0 0 0.111 -0.308c-1.76 -0.61 -2.502 -2.001 -3.174 -3.381z" fill="#fff" fill-opacity="1"/></g></svg>